<svg width="37" height="37" viewBox="0 0 37 37" fill="none" xmlns="http://www.w3.org/2000/svg">
<g clip-path="url(#clip0_246_1587)">
<path d="M23.1253 10.792H27.7503C28.7626 10.792 29.765 10.9914 30.7002 11.3788C31.6354 11.7661 32.4852 12.3339 33.2009 13.0497C33.9167 13.7655 34.4845 14.6153 34.8719 15.5505C35.2593 16.4857 35.4587 17.4881 35.4587 18.5003C35.4587 19.5126 35.2593 20.515 34.8719 21.4502C34.4845 22.3854 33.9167 23.2352 33.2009 23.9509C32.4852 24.6667 31.6354 25.2345 30.7002 25.6219C29.765 26.0093 28.7626 26.2087 27.7503 26.2087H23.1253M13.8753 26.2087H9.25033C8.23805 26.2087 7.23569 26.0093 6.30047 25.6219C5.36526 25.2345 4.5155 24.6667 3.79971 23.9509C2.35412 22.5053 1.54199 20.5447 1.54199 18.5003C1.54199 16.4559 2.35412 14.4953 3.79971 13.0497C5.2453 11.6041 7.20595 10.792 9.25033 10.792H13.8753M12.3337 18.5003H24.667" stroke="#1E1E1E" stroke-width="4" stroke-linecap="round" stroke-linejoin="round"/>
</g>
<defs>
<clipPath id="clip0_246_1587">
<rect width="37" height="37" fill="white"/>
</clipPath>
</defs>
</svg>
