<svg width="45" height="44" viewBox="0 0 45 44" fill="none" xmlns="http://www.w3.org/2000/svg">
<path d="M6.18847 0C4.54748 0 2.97371 0.67094 1.81336 1.86522C0.653004 3.0595 0.00112489 4.67929 0.00112489 6.36826V18.5258C1.79129 16.0692 4.45633 14.445 7.40995 14.0108C10.3636 13.5765 13.3638 14.3676 15.7507 16.2101C18.1376 18.0526 19.7156 20.7956 20.1376 23.8356C20.5595 26.8755 19.7908 29.9635 18.0007 32.4202V34.7359H38.8127C40.4536 34.7359 42.0274 34.065 43.1878 32.8707C44.3481 31.6764 45 30.0567 45 28.3677V6.36826C45 4.67929 44.3481 3.0595 43.1878 1.86522C42.0274 0.67094 40.4536 0 38.8127 0H6.18847ZM10.6884 9.26292H34.3128C34.7603 9.26292 35.1895 9.4459 35.506 9.77162C35.8224 10.0973 36.0002 10.5391 36.0002 10.9997C36.0002 11.4603 35.8224 11.9021 35.506 12.2278C35.1895 12.5535 34.7603 12.7365 34.3128 12.7365H10.6884C10.2408 12.7365 9.8116 12.5535 9.49514 12.2278C9.17869 11.9021 9.0009 11.4603 9.0009 10.9997C9.0009 10.5391 9.17869 10.0973 9.49514 9.77162C9.8116 9.4459 10.2408 9.26292 10.6884 9.26292ZM22.5006 22.5784C22.5006 22.1177 22.6783 21.676 22.9948 21.3503C23.3113 21.0246 23.7405 20.8416 24.188 20.8416H34.3128C34.7603 20.8416 35.1895 21.0246 35.506 21.3503C35.8224 21.676 36.0002 22.1177 36.0002 22.5784C36.0002 23.039 35.8224 23.4808 35.506 23.8065C35.1895 24.1322 34.7603 24.3152 34.3128 24.3152H24.188C23.7405 24.3152 23.3113 24.1322 22.9948 23.8065C22.6783 23.4808 22.5006 23.039 22.5006 22.5784ZM9.0009 16.2101C6.61371 16.2101 4.3243 17.1861 2.6363 18.9235C0.948306 20.6608 0 23.0172 0 25.4742C0 27.9312 0.948306 30.2875 2.6363 32.0249C4.3243 33.7622 6.61371 34.7383 9.0009 34.7383C11.3881 34.7383 13.6775 33.7622 15.3655 32.0249C17.0535 30.2875 18.0018 27.9312 18.0018 25.4742C18.0018 23.0172 17.0535 20.6608 15.3655 18.9235C13.6775 17.1861 11.3881 16.2101 9.0009 16.2101ZM15.7507 34.7383C13.872 36.1925 11.5343 37.054 9.0009 37.054C6.56678 37.0587 4.19738 36.2474 2.25107 34.7429V42.2598C2.25107 43.5797 3.61228 44.3902 4.70351 43.809L4.906 43.6816L9.0009 40.7383L13.0958 43.6839C13.3323 43.8539 13.6071 43.9586 13.8941 43.9881C14.1811 44.0176 14.4707 43.9709 14.7352 43.8525C14.9997 43.734 15.2302 43.5478 15.4049 43.3115C15.5795 43.0752 15.6924 42.7969 15.7327 42.5029L15.7507 42.2598V34.7383Z" fill="currentColor"/>
</svg>
