<svg width="40" height="40" viewBox="0 0 40 40" fill="none" xmlns="http://www.w3.org/2000/svg">
<path d="M13.0769 21.5385C13.7785 21.5385 14.3877 21.5385 14.9231 21.6677C15.7511 21.8652 16.5084 22.288 17.1111 22.8891C17.7139 23.4902 18.1387 24.2463 18.3385 25.0738C18.4615 25.6123 18.4615 26.2215 18.4615 26.9231V34.6154C18.4615 35.3169 18.4615 35.9261 18.3354 36.4615C18.1373 37.2903 17.7137 38.0481 17.1114 38.651C16.5091 39.2538 15.7517 39.6781 14.9231 39.8769C14.3877 40 13.7785 40 13.0769 40H5.38461C4.68308 40 4.07385 40 3.53846 39.8738C2.71117 39.675 1.95493 39.2514 1.35329 38.6498C0.751653 38.0481 0.328034 37.2919 0.129231 36.4646C1.66268e-07 35.9261 0 35.3169 0 34.6154V26.9231C0 26.2215 1.66268e-07 25.6123 0.129231 25.0769C0.327788 24.25 0.750947 23.494 1.35201 22.8924C1.95307 22.2908 2.70866 21.867 3.53538 21.6677C4.07385 21.5385 4.68308 21.5385 5.38461 21.5385H13.0769ZM34.6154 21.5385C35.3169 21.5385 35.9261 21.5385 36.4615 21.6677C37.289 21.8657 38.0456 22.2887 38.6478 22.8898C39.25 23.4909 39.6743 24.2467 39.8738 25.0738C40.0031 25.6123 40 26.2215 40 26.9231V34.6154C40 35.3169 40 35.9261 39.8738 36.4615C39.6755 37.2894 39.2521 38.0463 38.6505 38.6485C38.0488 39.2507 37.2923 39.6748 36.4646 39.8738C35.9261 40.0031 35.3169 40 34.6154 40H26.9231C26.2215 40 25.6123 40 25.0769 39.8738C24.2496 39.675 23.4934 39.2514 22.8917 38.6498C22.2901 38.0481 21.8665 37.2919 21.6677 36.4646C21.5385 35.9261 21.5385 35.3169 21.5385 34.6154V26.9231C21.5385 26.2215 21.5385 25.6123 21.6677 25.0769C21.8662 24.25 22.2894 23.494 22.8905 22.8924C23.4915 22.2908 24.2471 21.867 25.0738 21.6677C25.6123 21.5385 26.2215 21.5385 26.9231 21.5385H34.6154ZM5.53846 24.6154C4.59384 24.6154 4.39077 24.6246 4.25846 24.6585C3.98206 24.7246 3.72937 24.8659 3.52842 25.0669C3.32746 25.2678 3.1861 25.5205 3.12 25.7969C3.08923 25.9292 3.07692 26.1354 3.07692 27.0769V34.4615C3.07692 35.4092 3.08615 35.6123 3.12 35.7446C3.1861 36.021 3.32746 36.2737 3.52842 36.4747C3.72937 36.6756 3.98206 36.817 4.25846 36.8831C4.39077 36.9138 4.59692 36.9231 5.53846 36.9231H12.9231C13.8708 36.9231 14.0738 36.9138 14.2062 36.88C14.4822 36.8141 14.7346 36.6732 14.9355 36.4729C15.1364 36.2725 15.278 36.0204 15.3446 35.7446C15.3754 35.6123 15.3846 35.4061 15.3846 34.4615V27.0769C15.3846 26.1323 15.3754 25.9292 15.3415 25.7969C15.2757 25.5209 15.1348 25.2685 14.9344 25.0676C14.734 24.8666 14.482 24.7251 14.2062 24.6585C14.0738 24.6277 13.8677 24.6154 12.9231 24.6154H5.53846ZM27.0769 24.6154C26.1323 24.6154 25.9292 24.6246 25.7969 24.6585C25.5205 24.7246 25.2678 24.8659 25.0669 25.0669C24.8659 25.2678 24.7246 25.5205 24.6585 25.7969C24.6277 25.9292 24.6154 26.1354 24.6154 27.0769V34.4615C24.6154 35.4092 24.6246 35.6123 24.6585 35.7446C24.7246 36.021 24.8659 36.2737 25.0669 36.4747C25.2678 36.6756 25.5205 36.817 25.7969 36.8831C25.9292 36.9138 26.1354 36.9231 27.0769 36.9231H34.4615C35.4092 36.9231 35.6123 36.9138 35.7446 36.88C36.0206 36.8141 36.273 36.6732 36.474 36.4729C36.6749 36.2725 36.8165 36.0204 36.8831 35.7446C36.9138 35.6123 36.9231 35.4061 36.9231 34.4615V27.0769C36.9231 26.1323 36.9108 25.9292 36.88 25.7969C36.8141 25.5209 36.6732 25.2685 36.4729 25.0676C36.2725 24.8666 36.0204 24.7251 35.7446 24.6585C35.6123 24.6277 35.4061 24.6154 34.4615 24.6154H27.0769ZM13.0769 0C13.7785 0 14.3877 1.66268e-07 14.9231 0.129231C15.7511 0.326785 16.5084 0.7495 17.1111 1.35063C17.7139 1.95176 18.1387 2.70788 18.3385 3.53538C18.4615 4.07385 18.4615 4.68308 18.4615 5.38461V13.0769C18.4615 13.7785 18.4615 14.3877 18.3354 14.9231C18.1373 15.7519 17.7137 16.5097 17.1114 17.1125C16.5091 17.7153 15.7517 18.1397 14.9231 18.3385C14.3877 18.4615 13.7785 18.4615 13.0769 18.4615H5.38461C4.68308 18.4615 4.07385 18.4615 3.53846 18.3354C2.71022 18.1368 1.95306 17.713 1.35081 17.1107C0.748559 16.5085 0.324701 15.7513 0.126154 14.9231C2.26729e-08 14.3877 0 13.7785 0 13.0769V5.38461C0 4.68308 1.66268e-07 4.07385 0.129231 3.53846C0.327788 2.71155 0.750947 1.95558 1.35201 1.35398C1.95307 0.752376 2.70866 0.328534 3.53538 0.129231C4.07385 1.66268e-07 4.68308 0 5.38461 0H13.0769ZM34.6154 0C35.3169 0 35.9261 1.66268e-07 36.4615 0.129231C37.289 0.327287 38.0456 0.750224 38.6478 1.35132C39.25 1.95241 39.6743 2.70827 39.8738 3.53538C40.0031 4.07385 40 4.68308 40 5.38461V13.0769C40 13.7785 40 14.3877 39.8738 14.9231C39.6758 15.7519 39.2522 16.5097 38.6499 17.1125C38.0476 17.7153 37.2902 18.1397 36.4615 18.3385C35.9261 18.4615 35.3169 18.4615 34.6154 18.4615H26.9231C26.2215 18.4615 25.6123 18.4615 25.0769 18.3354C24.2487 18.1368 23.4915 17.713 22.8893 17.1107C22.287 16.5085 21.8632 15.7513 21.6646 14.9231C21.5385 14.3877 21.5385 13.7785 21.5385 13.0769V5.38461C21.5385 4.68308 21.5385 4.07385 21.6677 3.53846C21.8662 2.71155 22.2894 1.95558 22.8905 1.35398C23.4915 0.752376 24.2471 0.328534 25.0738 0.129231C25.6123 1.66268e-07 26.2215 0 26.9231 0H34.6154ZM5.53846 3.07692C4.59384 3.07692 4.39077 3.08615 4.25846 3.12C3.98206 3.1861 3.72937 3.32746 3.52842 3.52842C3.32746 3.72937 3.1861 3.98206 3.12 4.25846C3.08923 4.39077 3.07692 4.59692 3.07692 5.53846V12.9231C3.07692 13.8708 3.08615 14.0738 3.12 14.2062C3.1861 14.4826 3.32746 14.7352 3.52842 14.9362C3.72937 15.1371 3.98206 15.2785 4.25846 15.3446C4.39077 15.3754 4.59692 15.3846 5.53846 15.3846H12.9231C13.8708 15.3846 14.0738 15.3754 14.2062 15.3415C14.4822 15.2757 14.7346 15.1348 14.9355 14.9344C15.1364 14.734 15.278 14.482 15.3446 14.2062C15.3754 14.0738 15.3846 13.8677 15.3846 12.9231V5.53846C15.3846 4.59384 15.3754 4.39077 15.3415 4.25846C15.2757 3.98245 15.1348 3.73002 14.9344 3.5291C14.734 3.32819 14.482 3.1866 14.2062 3.12C14.0738 3.08923 13.8677 3.07692 12.9231 3.07692H5.53846ZM27.0769 3.07692C26.1323 3.07692 25.9292 3.08615 25.7969 3.12C25.5205 3.1861 25.2678 3.32746 25.0669 3.52842C24.8659 3.72937 24.7246 3.98206 24.6585 4.25846C24.6277 4.39077 24.6154 4.59692 24.6154 5.53846V12.9231C24.6154 13.8708 24.6246 14.0738 24.6585 14.2062C24.7246 14.4826 24.8659 14.7352 25.0669 14.9362C25.2678 15.1371 25.5205 15.2785 25.7969 15.3446C25.9292 15.3754 26.1354 15.3846 27.0769 15.3846H34.4615C35.4092 15.3846 35.6123 15.3754 35.7446 15.3415C36.0206 15.2757 36.273 15.1348 36.474 14.9344C36.6749 14.734 36.8165 14.482 36.8831 14.2062C36.9138 14.0738 36.9231 13.8677 36.9231 12.9231V5.53846C36.9231 4.59384 36.9108 4.39077 36.88 4.25846C36.8141 3.98245 36.6732 3.73002 36.4729 3.5291C36.2725 3.32819 36.0204 3.1866 35.7446 3.12C35.6123 3.08923 35.4061 3.07692 34.4615 3.07692H27.0769Z" fill="currentColor"/>
</svg>
