<svg width="27" height="27" viewBox="0 0 27 27" fill="none" xmlns="http://www.w3.org/2000/svg">
<path d="M3.29688 23.0778V18.4073L17.8029 3.92877C18.0227 3.72729 18.2654 3.57161 18.5309 3.46172C18.7965 3.35182 19.0758 3.29688 19.3689 3.29688C19.6619 3.29688 19.9458 3.35182 20.2206 3.46172C20.4953 3.57161 20.7334 3.73645 20.9349 3.95624L22.4459 5.49476C22.6657 5.69623 22.826 5.93433 22.9267 6.20907C23.0275 6.4838 23.0778 6.75854 23.0778 7.03328C23.0778 7.32633 23.0275 7.60564 22.9267 7.87122C22.826 8.1368 22.6657 8.37948 22.4459 8.59927L7.96738 23.0778H3.29688ZM19.3414 8.57179L20.8799 7.03328L19.3414 5.49476L17.8029 7.03328L19.3414 8.57179Z" fill="white"/>
</svg>
