<svg width="45" height="45" viewBox="0 0 45 45" fill="none" xmlns="http://www.w3.org/2000/svg">
<path fill-rule="evenodd" clip-rule="evenodd" d="M30.6817 16.3635C30.6817 18.5334 29.8197 20.6145 28.2854 22.1489C26.751 23.6833 24.6699 24.5453 22.4999 24.5453C20.33 24.5453 18.2489 23.6833 16.7145 22.1489C15.1801 20.6145 14.3181 18.5334 14.3181 16.3635C14.3181 14.1935 15.1801 12.1124 16.7145 10.578C18.2489 9.04365 20.33 8.18164 22.4999 8.18164C24.6699 8.18164 26.751 9.04365 28.2854 10.578C29.8197 12.1124 30.6817 14.1935 30.6817 16.3635ZM26.5908 16.3635C26.5908 17.4484 26.1598 18.489 25.3926 19.2562C24.6254 20.0234 23.5849 20.4544 22.4999 20.4544C21.415 20.4544 20.3744 20.0234 19.6072 19.2562C18.84 18.489 18.409 17.4484 18.409 16.3635C18.409 15.2785 18.84 14.2379 19.6072 13.4707C20.3744 12.7036 21.415 12.2725 22.4999 12.2725C23.5849 12.2725 24.6254 12.7036 25.3926 13.4707C26.1598 14.2379 26.5908 15.2785 26.5908 16.3635Z" fill="currentColor"/>
<path fill-rule="evenodd" clip-rule="evenodd" d="M22.5 0C10.0739 0 0 10.0739 0 22.5C0 34.9261 10.0739 45 22.5 45C34.9261 45 45 34.9261 45 22.5C45 10.0739 34.9261 0 22.5 0ZM4.09091 22.5C4.09091 26.775 5.54932 30.7105 7.99364 33.8359C9.71068 31.5821 11.9253 29.7555 14.4647 28.4988C17.0041 27.242 19.7996 26.5891 22.633 26.5909C25.4299 26.5876 28.1906 27.2231 30.7046 28.4489C33.2186 29.6747 35.4194 31.4585 37.1393 33.6641C38.9116 31.3396 40.1049 28.6266 40.6205 25.7494C41.136 22.8722 40.9591 19.9136 40.1042 17.1184C39.2493 14.3232 37.7411 11.7717 35.7044 9.67508C33.6677 7.57846 31.161 5.99699 28.3917 5.0615C25.6224 4.126 22.6702 3.8634 19.7793 4.2954C16.8883 4.7274 14.1418 5.8416 11.767 7.54579C9.39221 9.24999 7.45734 11.4952 6.12251 14.0956C4.78769 16.6961 4.09128 19.577 4.09091 22.5ZM22.5 40.9091C18.2739 40.9159 14.1753 39.4621 10.8982 36.7936C12.2171 34.9049 13.9729 33.3628 16.0161 32.2987C18.0592 31.2345 20.3293 30.6798 22.633 30.6818C24.9079 30.6798 27.1504 31.2207 29.1743 32.2595C31.1982 33.2983 32.945 34.805 34.2695 36.6545C30.9671 39.4098 26.8009 40.9158 22.5 40.9091Z" fill="currentColor"/>
</svg>
