<svg width="55" height="55" viewBox="0 0 55 55" fill="none" xmlns="http://www.w3.org/2000/svg">
<path d="M13.7501 4.58301C11.2063 4.58301 9.16675 6.62259 9.16675 9.16634V45.833C9.16675 47.0486 9.64963 48.2144 10.5092 49.0739C11.3687 49.9335 12.5345 50.4163 13.7501 50.4163H29.0584C28.0356 48.2686 27.5033 45.9202 27.5001 43.5413C27.5001 39.2868 29.1902 35.2066 32.1986 32.1982C35.207 29.1898 39.2872 27.4997 43.5417 27.4997C44.309 27.5059 45.0749 27.5672 45.8334 27.683V18.333L32.0834 4.58301H13.7501ZM29.7917 8.02051L42.3959 20.6247H29.7917V8.02051ZM41.2501 32.083C41.11 32.0804 40.9736 32.1272 40.8646 32.2152C40.7556 32.3032 40.6812 32.4268 40.6542 32.5643L40.2188 35.5893C39.5313 35.8872 38.8668 36.2538 38.2709 36.6663L35.4292 35.5205C35.1772 35.5205 34.8792 35.5205 34.7188 35.8184L32.4272 39.783C32.2897 40.0351 32.3355 40.333 32.5647 40.5163L34.9938 42.3955C34.9026 43.1567 34.9026 43.926 34.9938 44.6872L32.5647 46.5663C32.4617 46.6547 32.3919 46.7755 32.3669 46.9088C32.3419 47.0422 32.3632 47.18 32.4272 47.2997L34.7188 51.2643C34.8563 51.5622 35.1542 51.5622 35.4292 51.5622L38.2709 50.4163C38.8668 50.8288 39.5084 51.2184 40.2188 51.4934L40.6542 54.5184C40.7001 54.7934 40.9292 54.9997 41.2501 54.9997H45.8334C46.0855 54.9997 46.3376 54.7934 46.3834 54.5184L46.8188 51.4934C47.5063 51.1955 48.1251 50.8288 48.7438 50.4163L51.5626 51.5622C51.8605 51.5622 52.1584 51.5622 52.3188 51.2643L54.6105 47.2997C54.6745 47.18 54.6957 47.0422 54.6707 46.9088C54.6457 46.7755 54.576 46.6547 54.473 46.5663L52.0209 44.6872C52.0667 44.2976 52.1126 43.9309 52.1126 43.5413C52.1126 43.1518 52.0897 42.7851 52.0209 42.3955L54.4501 40.5163C54.5531 40.428 54.6228 40.3072 54.6478 40.1739C54.6728 40.0405 54.6516 39.9026 54.5876 39.783L52.2959 35.8184C52.1584 35.5205 51.8605 35.5205 51.5626 35.5205L48.7438 36.6663C48.1251 36.2538 47.5063 35.8643 46.7959 35.5893L46.3605 32.5643C46.3461 32.4337 46.2846 32.3129 46.1876 32.2243C46.0906 32.1358 45.9647 32.0855 45.8334 32.083H41.2501ZM43.5417 40.1038C45.4438 40.1038 46.9792 41.6393 46.9792 43.5413C46.9792 45.4434 45.4438 46.9788 43.5417 46.9788C41.6167 46.9788 40.1042 45.4434 40.1042 43.5413C40.1042 41.6393 41.6397 40.1038 43.5417 40.1038Z" fill="currentColor"/>
</svg>
